%TF.GenerationSoftware,KiCad,Pcbnew,9.0.6*%
%TF.CreationDate,2025-12-29T01:24:51-06:00*%
%TF.ProjectId,Assignment 4.3 CNC 2 PCB,41737369-676e-46d6-956e-7420342e3320,rev?*%
%TF.SameCoordinates,Original*%
%TF.FileFunction,Copper,L1,Top*%
%TF.FilePolarity,Positive*%
%FSLAX46Y46*%
G04 Gerber Fmt 4.6, Leading zero omitted, Abs format (unit mm)*
G04 Created by KiCad (PCBNEW 9.0.6) date 2025-12-29 01:24:51*
%MOMM*%
%LPD*%
G01*
G04 APERTURE LIST*
%ADD10C,0.350000*%
%TA.AperFunction,NonConductor*%
%ADD11C,0.350000*%
%TD*%
%TA.AperFunction,SMDPad,CuDef*%
%ADD12R,2.600000X5.560000*%
%TD*%
%TA.AperFunction,SMDPad,CuDef*%
%ADD13C,17.800000*%
%TD*%
%TA.AperFunction,ComponentPad*%
%ADD14C,1.600000*%
%TD*%
%TA.AperFunction,ComponentPad*%
%ADD15R,1.800000X1.800000*%
%TD*%
%TA.AperFunction,ComponentPad*%
%ADD16C,1.800000*%
%TD*%
%TA.AperFunction,ComponentPad*%
%ADD17C,2.000000*%
%TD*%
%TA.AperFunction,Conductor*%
%ADD18C,0.200000*%
%TD*%
G04 APERTURE END LIST*
D10*
D11*
X179896929Y-104115604D02*
X179896929Y-101315604D01*
X179896929Y-101315604D02*
X180830263Y-103315604D01*
X180830263Y-103315604D02*
X181763596Y-101315604D01*
X181763596Y-101315604D02*
X181763596Y-104115604D01*
X184296929Y-104115604D02*
X184296929Y-102648937D01*
X184296929Y-102648937D02*
X184163596Y-102382271D01*
X184163596Y-102382271D02*
X183896929Y-102248937D01*
X183896929Y-102248937D02*
X183363596Y-102248937D01*
X183363596Y-102248937D02*
X183096929Y-102382271D01*
X184296929Y-103982271D02*
X184030263Y-104115604D01*
X184030263Y-104115604D02*
X183363596Y-104115604D01*
X183363596Y-104115604D02*
X183096929Y-103982271D01*
X183096929Y-103982271D02*
X182963596Y-103715604D01*
X182963596Y-103715604D02*
X182963596Y-103448937D01*
X182963596Y-103448937D02*
X183096929Y-103182271D01*
X183096929Y-103182271D02*
X183363596Y-103048937D01*
X183363596Y-103048937D02*
X184030263Y-103048937D01*
X184030263Y-103048937D02*
X184296929Y-102915604D01*
X186830262Y-104115604D02*
X186830262Y-101315604D01*
X186830262Y-103982271D02*
X186563596Y-104115604D01*
X186563596Y-104115604D02*
X186030262Y-104115604D01*
X186030262Y-104115604D02*
X185763596Y-103982271D01*
X185763596Y-103982271D02*
X185630262Y-103848937D01*
X185630262Y-103848937D02*
X185496929Y-103582271D01*
X185496929Y-103582271D02*
X185496929Y-102782271D01*
X185496929Y-102782271D02*
X185630262Y-102515604D01*
X185630262Y-102515604D02*
X185763596Y-102382271D01*
X185763596Y-102382271D02*
X186030262Y-102248937D01*
X186030262Y-102248937D02*
X186563596Y-102248937D01*
X186563596Y-102248937D02*
X186830262Y-102382271D01*
X189896928Y-101315604D02*
X191496928Y-101315604D01*
X190696928Y-104115604D02*
X190696928Y-101315604D01*
X192430261Y-104115604D02*
X192430261Y-102248937D01*
X192430261Y-101315604D02*
X192296928Y-101448937D01*
X192296928Y-101448937D02*
X192430261Y-101582271D01*
X192430261Y-101582271D02*
X192563595Y-101448937D01*
X192563595Y-101448937D02*
X192430261Y-101315604D01*
X192430261Y-101315604D02*
X192430261Y-101582271D01*
X193763594Y-102248937D02*
X193763594Y-104115604D01*
X193763594Y-102515604D02*
X193896928Y-102382271D01*
X193896928Y-102382271D02*
X194163594Y-102248937D01*
X194163594Y-102248937D02*
X194563594Y-102248937D01*
X194563594Y-102248937D02*
X194830261Y-102382271D01*
X194830261Y-102382271D02*
X194963594Y-102648937D01*
X194963594Y-102648937D02*
X194963594Y-104115604D01*
X196296927Y-104115604D02*
X196296927Y-101315604D01*
X196563594Y-103048937D02*
X197363594Y-104115604D01*
X197363594Y-102248937D02*
X196296927Y-103315604D01*
X199630261Y-103982271D02*
X199363594Y-104115604D01*
X199363594Y-104115604D02*
X198830261Y-104115604D01*
X198830261Y-104115604D02*
X198563594Y-103982271D01*
X198563594Y-103982271D02*
X198430261Y-103715604D01*
X198430261Y-103715604D02*
X198430261Y-102648937D01*
X198430261Y-102648937D02*
X198563594Y-102382271D01*
X198563594Y-102382271D02*
X198830261Y-102248937D01*
X198830261Y-102248937D02*
X199363594Y-102248937D01*
X199363594Y-102248937D02*
X199630261Y-102382271D01*
X199630261Y-102382271D02*
X199763594Y-102648937D01*
X199763594Y-102648937D02*
X199763594Y-102915604D01*
X199763594Y-102915604D02*
X198430261Y-103182271D01*
X200963594Y-104115604D02*
X200963594Y-102248937D01*
X200963594Y-102782271D02*
X201096928Y-102515604D01*
X201096928Y-102515604D02*
X201230261Y-102382271D01*
X201230261Y-102382271D02*
X201496928Y-102248937D01*
X201496928Y-102248937D02*
X201763594Y-102248937D01*
X202563594Y-103982271D02*
X202830261Y-104115604D01*
X202830261Y-104115604D02*
X203363594Y-104115604D01*
X203363594Y-104115604D02*
X203630261Y-103982271D01*
X203630261Y-103982271D02*
X203763594Y-103715604D01*
X203763594Y-103715604D02*
X203763594Y-103582271D01*
X203763594Y-103582271D02*
X203630261Y-103315604D01*
X203630261Y-103315604D02*
X203363594Y-103182271D01*
X203363594Y-103182271D02*
X202963594Y-103182271D01*
X202963594Y-103182271D02*
X202696927Y-103048937D01*
X202696927Y-103048937D02*
X202563594Y-102782271D01*
X202563594Y-102782271D02*
X202563594Y-102648937D01*
X202563594Y-102648937D02*
X202696927Y-102382271D01*
X202696927Y-102382271D02*
X202963594Y-102248937D01*
X202963594Y-102248937D02*
X203363594Y-102248937D01*
X203363594Y-102248937D02*
X203630261Y-102382271D01*
X206830261Y-101315604D02*
X207496927Y-104115604D01*
X207496927Y-104115604D02*
X208030261Y-102115604D01*
X208030261Y-102115604D02*
X208563594Y-104115604D01*
X208563594Y-104115604D02*
X209230261Y-101315604D01*
X210696927Y-104115604D02*
X210430261Y-103982271D01*
X210430261Y-103982271D02*
X210296927Y-103848937D01*
X210296927Y-103848937D02*
X210163594Y-103582271D01*
X210163594Y-103582271D02*
X210163594Y-102782271D01*
X210163594Y-102782271D02*
X210296927Y-102515604D01*
X210296927Y-102515604D02*
X210430261Y-102382271D01*
X210430261Y-102382271D02*
X210696927Y-102248937D01*
X210696927Y-102248937D02*
X211096927Y-102248937D01*
X211096927Y-102248937D02*
X211363594Y-102382271D01*
X211363594Y-102382271D02*
X211496927Y-102515604D01*
X211496927Y-102515604D02*
X211630261Y-102782271D01*
X211630261Y-102782271D02*
X211630261Y-103582271D01*
X211630261Y-103582271D02*
X211496927Y-103848937D01*
X211496927Y-103848937D02*
X211363594Y-103982271D01*
X211363594Y-103982271D02*
X211096927Y-104115604D01*
X211096927Y-104115604D02*
X210696927Y-104115604D01*
X212830260Y-104115604D02*
X212830260Y-102248937D01*
X212830260Y-102782271D02*
X212963594Y-102515604D01*
X212963594Y-102515604D02*
X213096927Y-102382271D01*
X213096927Y-102382271D02*
X213363594Y-102248937D01*
X213363594Y-102248937D02*
X213630260Y-102248937D01*
X214563593Y-104115604D02*
X214563593Y-101315604D01*
X214830260Y-103048937D02*
X215630260Y-104115604D01*
X215630260Y-102248937D02*
X214563593Y-103315604D01*
X216696927Y-103982271D02*
X216963594Y-104115604D01*
X216963594Y-104115604D02*
X217496927Y-104115604D01*
X217496927Y-104115604D02*
X217763594Y-103982271D01*
X217763594Y-103982271D02*
X217896927Y-103715604D01*
X217896927Y-103715604D02*
X217896927Y-103582271D01*
X217896927Y-103582271D02*
X217763594Y-103315604D01*
X217763594Y-103315604D02*
X217496927Y-103182271D01*
X217496927Y-103182271D02*
X217096927Y-103182271D01*
X217096927Y-103182271D02*
X216830260Y-103048937D01*
X216830260Y-103048937D02*
X216696927Y-102782271D01*
X216696927Y-102782271D02*
X216696927Y-102648937D01*
X216696927Y-102648937D02*
X216830260Y-102382271D01*
X216830260Y-102382271D02*
X217096927Y-102248937D01*
X217096927Y-102248937D02*
X217496927Y-102248937D01*
X217496927Y-102248937D02*
X217763594Y-102382271D01*
X219096927Y-104115604D02*
X219096927Y-101315604D01*
X220296927Y-104115604D02*
X220296927Y-102648937D01*
X220296927Y-102648937D02*
X220163594Y-102382271D01*
X220163594Y-102382271D02*
X219896927Y-102248937D01*
X219896927Y-102248937D02*
X219496927Y-102248937D01*
X219496927Y-102248937D02*
X219230261Y-102382271D01*
X219230261Y-102382271D02*
X219096927Y-102515604D01*
X222030260Y-104115604D02*
X221763594Y-103982271D01*
X221763594Y-103982271D02*
X221630260Y-103848937D01*
X221630260Y-103848937D02*
X221496927Y-103582271D01*
X221496927Y-103582271D02*
X221496927Y-102782271D01*
X221496927Y-102782271D02*
X221630260Y-102515604D01*
X221630260Y-102515604D02*
X221763594Y-102382271D01*
X221763594Y-102382271D02*
X222030260Y-102248937D01*
X222030260Y-102248937D02*
X222430260Y-102248937D01*
X222430260Y-102248937D02*
X222696927Y-102382271D01*
X222696927Y-102382271D02*
X222830260Y-102515604D01*
X222830260Y-102515604D02*
X222963594Y-102782271D01*
X222963594Y-102782271D02*
X222963594Y-103582271D01*
X222963594Y-103582271D02*
X222830260Y-103848937D01*
X222830260Y-103848937D02*
X222696927Y-103982271D01*
X222696927Y-103982271D02*
X222430260Y-104115604D01*
X222430260Y-104115604D02*
X222030260Y-104115604D01*
X224163593Y-102248937D02*
X224163593Y-105048937D01*
X224163593Y-102382271D02*
X224430260Y-102248937D01*
X224430260Y-102248937D02*
X224963593Y-102248937D01*
X224963593Y-102248937D02*
X225230260Y-102382271D01*
X225230260Y-102382271D02*
X225363593Y-102515604D01*
X225363593Y-102515604D02*
X225496927Y-102782271D01*
X225496927Y-102782271D02*
X225496927Y-103582271D01*
X225496927Y-103582271D02*
X225363593Y-103848937D01*
X225363593Y-103848937D02*
X225230260Y-103982271D01*
X225230260Y-103982271D02*
X224963593Y-104115604D01*
X224963593Y-104115604D02*
X224430260Y-104115604D01*
X224430260Y-104115604D02*
X224163593Y-103982271D01*
X179496929Y-105823447D02*
X181096929Y-105823447D01*
X180296929Y-108623447D02*
X180296929Y-105823447D01*
X182030262Y-108623447D02*
X182030262Y-106756780D01*
X182030262Y-105823447D02*
X181896929Y-105956780D01*
X181896929Y-105956780D02*
X182030262Y-106090114D01*
X182030262Y-106090114D02*
X182163596Y-105956780D01*
X182163596Y-105956780D02*
X182030262Y-105823447D01*
X182030262Y-105823447D02*
X182030262Y-106090114D01*
X183363595Y-108623447D02*
X183363595Y-106756780D01*
X183363595Y-107023447D02*
X183496929Y-106890114D01*
X183496929Y-106890114D02*
X183763595Y-106756780D01*
X183763595Y-106756780D02*
X184163595Y-106756780D01*
X184163595Y-106756780D02*
X184430262Y-106890114D01*
X184430262Y-106890114D02*
X184563595Y-107156780D01*
X184563595Y-107156780D02*
X184563595Y-108623447D01*
X184563595Y-107156780D02*
X184696929Y-106890114D01*
X184696929Y-106890114D02*
X184963595Y-106756780D01*
X184963595Y-106756780D02*
X185363595Y-106756780D01*
X185363595Y-106756780D02*
X185630262Y-106890114D01*
X185630262Y-106890114D02*
X185763595Y-107156780D01*
X185763595Y-107156780D02*
X185763595Y-108623447D01*
X188163595Y-108490114D02*
X187896928Y-108623447D01*
X187896928Y-108623447D02*
X187363595Y-108623447D01*
X187363595Y-108623447D02*
X187096928Y-108490114D01*
X187096928Y-108490114D02*
X186963595Y-108223447D01*
X186963595Y-108223447D02*
X186963595Y-107156780D01*
X186963595Y-107156780D02*
X187096928Y-106890114D01*
X187096928Y-106890114D02*
X187363595Y-106756780D01*
X187363595Y-106756780D02*
X187896928Y-106756780D01*
X187896928Y-106756780D02*
X188163595Y-106890114D01*
X188163595Y-106890114D02*
X188296928Y-107156780D01*
X188296928Y-107156780D02*
X188296928Y-107423447D01*
X188296928Y-107423447D02*
X186963595Y-107690114D01*
X189230262Y-106756780D02*
X189763595Y-108623447D01*
X189763595Y-108623447D02*
X190296928Y-107290114D01*
X190296928Y-107290114D02*
X190830262Y-108623447D01*
X190830262Y-108623447D02*
X191363595Y-106756780D01*
X192830261Y-108623447D02*
X192563595Y-108490114D01*
X192563595Y-108490114D02*
X192430261Y-108356780D01*
X192430261Y-108356780D02*
X192296928Y-108090114D01*
X192296928Y-108090114D02*
X192296928Y-107290114D01*
X192296928Y-107290114D02*
X192430261Y-107023447D01*
X192430261Y-107023447D02*
X192563595Y-106890114D01*
X192563595Y-106890114D02*
X192830261Y-106756780D01*
X192830261Y-106756780D02*
X193230261Y-106756780D01*
X193230261Y-106756780D02*
X193496928Y-106890114D01*
X193496928Y-106890114D02*
X193630261Y-107023447D01*
X193630261Y-107023447D02*
X193763595Y-107290114D01*
X193763595Y-107290114D02*
X193763595Y-108090114D01*
X193763595Y-108090114D02*
X193630261Y-108356780D01*
X193630261Y-108356780D02*
X193496928Y-108490114D01*
X193496928Y-108490114D02*
X193230261Y-108623447D01*
X193230261Y-108623447D02*
X192830261Y-108623447D01*
X194963594Y-108623447D02*
X194963594Y-106756780D01*
X194963594Y-107290114D02*
X195096928Y-107023447D01*
X195096928Y-107023447D02*
X195230261Y-106890114D01*
X195230261Y-106890114D02*
X195496928Y-106756780D01*
X195496928Y-106756780D02*
X195763594Y-106756780D01*
X196696927Y-108623447D02*
X196696927Y-105823447D01*
X196963594Y-107556780D02*
X197763594Y-108623447D01*
X197763594Y-106756780D02*
X196696927Y-107823447D01*
X198830261Y-108490114D02*
X199096928Y-108623447D01*
X199096928Y-108623447D02*
X199630261Y-108623447D01*
X199630261Y-108623447D02*
X199896928Y-108490114D01*
X199896928Y-108490114D02*
X200030261Y-108223447D01*
X200030261Y-108223447D02*
X200030261Y-108090114D01*
X200030261Y-108090114D02*
X199896928Y-107823447D01*
X199896928Y-107823447D02*
X199630261Y-107690114D01*
X199630261Y-107690114D02*
X199230261Y-107690114D01*
X199230261Y-107690114D02*
X198963594Y-107556780D01*
X198963594Y-107556780D02*
X198830261Y-107290114D01*
X198830261Y-107290114D02*
X198830261Y-107156780D01*
X198830261Y-107156780D02*
X198963594Y-106890114D01*
X198963594Y-106890114D02*
X199230261Y-106756780D01*
X199230261Y-106756780D02*
X199630261Y-106756780D01*
X199630261Y-106756780D02*
X199896928Y-106890114D01*
X203363594Y-108623447D02*
X203363594Y-105823447D01*
X203363594Y-105823447D02*
X204030261Y-105823447D01*
X204030261Y-105823447D02*
X204430261Y-105956780D01*
X204430261Y-105956780D02*
X204696928Y-106223447D01*
X204696928Y-106223447D02*
X204830261Y-106490114D01*
X204830261Y-106490114D02*
X204963594Y-107023447D01*
X204963594Y-107023447D02*
X204963594Y-107423447D01*
X204963594Y-107423447D02*
X204830261Y-107956780D01*
X204830261Y-107956780D02*
X204696928Y-108223447D01*
X204696928Y-108223447D02*
X204430261Y-108490114D01*
X204430261Y-108490114D02*
X204030261Y-108623447D01*
X204030261Y-108623447D02*
X203363594Y-108623447D01*
X206163594Y-108623447D02*
X206163594Y-106756780D01*
X206163594Y-105823447D02*
X206030261Y-105956780D01*
X206030261Y-105956780D02*
X206163594Y-106090114D01*
X206163594Y-106090114D02*
X206296928Y-105956780D01*
X206296928Y-105956780D02*
X206163594Y-105823447D01*
X206163594Y-105823447D02*
X206163594Y-106090114D01*
X207230261Y-106756780D02*
X207896927Y-108623447D01*
X207896927Y-108623447D02*
X208563594Y-106756780D01*
X209496927Y-108490114D02*
X209763594Y-108623447D01*
X209763594Y-108623447D02*
X210296927Y-108623447D01*
X210296927Y-108623447D02*
X210563594Y-108490114D01*
X210563594Y-108490114D02*
X210696927Y-108223447D01*
X210696927Y-108223447D02*
X210696927Y-108090114D01*
X210696927Y-108090114D02*
X210563594Y-107823447D01*
X210563594Y-107823447D02*
X210296927Y-107690114D01*
X210296927Y-107690114D02*
X209896927Y-107690114D01*
X209896927Y-107690114D02*
X209630260Y-107556780D01*
X209630260Y-107556780D02*
X209496927Y-107290114D01*
X209496927Y-107290114D02*
X209496927Y-107156780D01*
X209496927Y-107156780D02*
X209630260Y-106890114D01*
X209630260Y-106890114D02*
X209896927Y-106756780D01*
X209896927Y-106756780D02*
X210296927Y-106756780D01*
X210296927Y-106756780D02*
X210563594Y-106890114D01*
X211896927Y-108623447D02*
X211896927Y-106756780D01*
X211896927Y-105823447D02*
X211763594Y-105956780D01*
X211763594Y-105956780D02*
X211896927Y-106090114D01*
X211896927Y-106090114D02*
X212030261Y-105956780D01*
X212030261Y-105956780D02*
X211896927Y-105823447D01*
X211896927Y-105823447D02*
X211896927Y-106090114D01*
X213630260Y-108623447D02*
X213363594Y-108490114D01*
X213363594Y-108490114D02*
X213230260Y-108356780D01*
X213230260Y-108356780D02*
X213096927Y-108090114D01*
X213096927Y-108090114D02*
X213096927Y-107290114D01*
X213096927Y-107290114D02*
X213230260Y-107023447D01*
X213230260Y-107023447D02*
X213363594Y-106890114D01*
X213363594Y-106890114D02*
X213630260Y-106756780D01*
X213630260Y-106756780D02*
X214030260Y-106756780D01*
X214030260Y-106756780D02*
X214296927Y-106890114D01*
X214296927Y-106890114D02*
X214430260Y-107023447D01*
X214430260Y-107023447D02*
X214563594Y-107290114D01*
X214563594Y-107290114D02*
X214563594Y-108090114D01*
X214563594Y-108090114D02*
X214430260Y-108356780D01*
X214430260Y-108356780D02*
X214296927Y-108490114D01*
X214296927Y-108490114D02*
X214030260Y-108623447D01*
X214030260Y-108623447D02*
X213630260Y-108623447D01*
X215763593Y-106756780D02*
X215763593Y-108623447D01*
X215763593Y-107023447D02*
X215896927Y-106890114D01*
X215896927Y-106890114D02*
X216163593Y-106756780D01*
X216163593Y-106756780D02*
X216563593Y-106756780D01*
X216563593Y-106756780D02*
X216830260Y-106890114D01*
X216830260Y-106890114D02*
X216963593Y-107156780D01*
X216963593Y-107156780D02*
X216963593Y-108623447D01*
X180830263Y-111664623D02*
X179896929Y-111664623D01*
X179896929Y-113131290D02*
X179896929Y-110331290D01*
X179896929Y-110331290D02*
X181230263Y-110331290D01*
X182296929Y-113131290D02*
X182296929Y-111264623D01*
X182296929Y-111797957D02*
X182430263Y-111531290D01*
X182430263Y-111531290D02*
X182563596Y-111397957D01*
X182563596Y-111397957D02*
X182830263Y-111264623D01*
X182830263Y-111264623D02*
X183096929Y-111264623D01*
X185230262Y-113131290D02*
X185230262Y-111664623D01*
X185230262Y-111664623D02*
X185096929Y-111397957D01*
X185096929Y-111397957D02*
X184830262Y-111264623D01*
X184830262Y-111264623D02*
X184296929Y-111264623D01*
X184296929Y-111264623D02*
X184030262Y-111397957D01*
X185230262Y-112997957D02*
X184963596Y-113131290D01*
X184963596Y-113131290D02*
X184296929Y-113131290D01*
X184296929Y-113131290D02*
X184030262Y-112997957D01*
X184030262Y-112997957D02*
X183896929Y-112731290D01*
X183896929Y-112731290D02*
X183896929Y-112464623D01*
X183896929Y-112464623D02*
X184030262Y-112197957D01*
X184030262Y-112197957D02*
X184296929Y-112064623D01*
X184296929Y-112064623D02*
X184963596Y-112064623D01*
X184963596Y-112064623D02*
X185230262Y-111931290D01*
X186563595Y-111264623D02*
X186563595Y-113131290D01*
X186563595Y-111531290D02*
X186696929Y-111397957D01*
X186696929Y-111397957D02*
X186963595Y-111264623D01*
X186963595Y-111264623D02*
X187363595Y-111264623D01*
X187363595Y-111264623D02*
X187630262Y-111397957D01*
X187630262Y-111397957D02*
X187763595Y-111664623D01*
X187763595Y-111664623D02*
X187763595Y-113131290D01*
X190296928Y-112997957D02*
X190030262Y-113131290D01*
X190030262Y-113131290D02*
X189496928Y-113131290D01*
X189496928Y-113131290D02*
X189230262Y-112997957D01*
X189230262Y-112997957D02*
X189096928Y-112864623D01*
X189096928Y-112864623D02*
X188963595Y-112597957D01*
X188963595Y-112597957D02*
X188963595Y-111797957D01*
X188963595Y-111797957D02*
X189096928Y-111531290D01*
X189096928Y-111531290D02*
X189230262Y-111397957D01*
X189230262Y-111397957D02*
X189496928Y-111264623D01*
X189496928Y-111264623D02*
X190030262Y-111264623D01*
X190030262Y-111264623D02*
X190296928Y-111397957D01*
X191496928Y-113131290D02*
X191496928Y-111264623D01*
X191496928Y-110331290D02*
X191363595Y-110464623D01*
X191363595Y-110464623D02*
X191496928Y-110597957D01*
X191496928Y-110597957D02*
X191630262Y-110464623D01*
X191630262Y-110464623D02*
X191496928Y-110331290D01*
X191496928Y-110331290D02*
X191496928Y-110597957D01*
X192696928Y-112997957D02*
X192963595Y-113131290D01*
X192963595Y-113131290D02*
X193496928Y-113131290D01*
X193496928Y-113131290D02*
X193763595Y-112997957D01*
X193763595Y-112997957D02*
X193896928Y-112731290D01*
X193896928Y-112731290D02*
X193896928Y-112597957D01*
X193896928Y-112597957D02*
X193763595Y-112331290D01*
X193763595Y-112331290D02*
X193496928Y-112197957D01*
X193496928Y-112197957D02*
X193096928Y-112197957D01*
X193096928Y-112197957D02*
X192830261Y-112064623D01*
X192830261Y-112064623D02*
X192696928Y-111797957D01*
X192696928Y-111797957D02*
X192696928Y-111664623D01*
X192696928Y-111664623D02*
X192830261Y-111397957D01*
X192830261Y-111397957D02*
X193096928Y-111264623D01*
X193096928Y-111264623D02*
X193496928Y-111264623D01*
X193496928Y-111264623D02*
X193763595Y-111397957D01*
X196296928Y-112997957D02*
X196030262Y-113131290D01*
X196030262Y-113131290D02*
X195496928Y-113131290D01*
X195496928Y-113131290D02*
X195230262Y-112997957D01*
X195230262Y-112997957D02*
X195096928Y-112864623D01*
X195096928Y-112864623D02*
X194963595Y-112597957D01*
X194963595Y-112597957D02*
X194963595Y-111797957D01*
X194963595Y-111797957D02*
X195096928Y-111531290D01*
X195096928Y-111531290D02*
X195230262Y-111397957D01*
X195230262Y-111397957D02*
X195496928Y-111264623D01*
X195496928Y-111264623D02*
X196030262Y-111264623D01*
X196030262Y-111264623D02*
X196296928Y-111397957D01*
X197896928Y-113131290D02*
X197630262Y-112997957D01*
X197630262Y-112997957D02*
X197496928Y-112864623D01*
X197496928Y-112864623D02*
X197363595Y-112597957D01*
X197363595Y-112597957D02*
X197363595Y-111797957D01*
X197363595Y-111797957D02*
X197496928Y-111531290D01*
X197496928Y-111531290D02*
X197630262Y-111397957D01*
X197630262Y-111397957D02*
X197896928Y-111264623D01*
X197896928Y-111264623D02*
X198296928Y-111264623D01*
X198296928Y-111264623D02*
X198563595Y-111397957D01*
X198563595Y-111397957D02*
X198696928Y-111531290D01*
X198696928Y-111531290D02*
X198830262Y-111797957D01*
X198830262Y-111797957D02*
X198830262Y-112597957D01*
X198830262Y-112597957D02*
X198696928Y-112864623D01*
X198696928Y-112864623D02*
X198563595Y-112997957D01*
X198563595Y-112997957D02*
X198296928Y-113131290D01*
X198296928Y-113131290D02*
X197896928Y-113131290D01*
X202163594Y-113131290D02*
X202163594Y-110331290D01*
X202163594Y-110331290D02*
X202830261Y-110331290D01*
X202830261Y-110331290D02*
X203230261Y-110464623D01*
X203230261Y-110464623D02*
X203496928Y-110731290D01*
X203496928Y-110731290D02*
X203630261Y-110997957D01*
X203630261Y-110997957D02*
X203763594Y-111531290D01*
X203763594Y-111531290D02*
X203763594Y-111931290D01*
X203763594Y-111931290D02*
X203630261Y-112464623D01*
X203630261Y-112464623D02*
X203496928Y-112731290D01*
X203496928Y-112731290D02*
X203230261Y-112997957D01*
X203230261Y-112997957D02*
X202830261Y-113131290D01*
X202830261Y-113131290D02*
X202163594Y-113131290D01*
X206030261Y-112997957D02*
X205763594Y-113131290D01*
X205763594Y-113131290D02*
X205230261Y-113131290D01*
X205230261Y-113131290D02*
X204963594Y-112997957D01*
X204963594Y-112997957D02*
X204830261Y-112731290D01*
X204830261Y-112731290D02*
X204830261Y-111664623D01*
X204830261Y-111664623D02*
X204963594Y-111397957D01*
X204963594Y-111397957D02*
X205230261Y-111264623D01*
X205230261Y-111264623D02*
X205763594Y-111264623D01*
X205763594Y-111264623D02*
X206030261Y-111397957D01*
X206030261Y-111397957D02*
X206163594Y-111664623D01*
X206163594Y-111664623D02*
X206163594Y-111931290D01*
X206163594Y-111931290D02*
X204830261Y-112197957D01*
X210830261Y-113131290D02*
X209496927Y-113131290D01*
X209496927Y-113131290D02*
X209496927Y-110331290D01*
X212963594Y-113131290D02*
X212963594Y-111664623D01*
X212963594Y-111664623D02*
X212830261Y-111397957D01*
X212830261Y-111397957D02*
X212563594Y-111264623D01*
X212563594Y-111264623D02*
X212030261Y-111264623D01*
X212030261Y-111264623D02*
X211763594Y-111397957D01*
X212963594Y-112997957D02*
X212696928Y-113131290D01*
X212696928Y-113131290D02*
X212030261Y-113131290D01*
X212030261Y-113131290D02*
X211763594Y-112997957D01*
X211763594Y-112997957D02*
X211630261Y-112731290D01*
X211630261Y-112731290D02*
X211630261Y-112464623D01*
X211630261Y-112464623D02*
X211763594Y-112197957D01*
X211763594Y-112197957D02*
X212030261Y-112064623D01*
X212030261Y-112064623D02*
X212696928Y-112064623D01*
X212696928Y-112064623D02*
X212963594Y-111931290D01*
X216430260Y-113131290D02*
X216430260Y-110331290D01*
X216430260Y-110331290D02*
X217496927Y-110331290D01*
X217496927Y-110331290D02*
X217763594Y-110464623D01*
X217763594Y-110464623D02*
X217896927Y-110597957D01*
X217896927Y-110597957D02*
X218030260Y-110864623D01*
X218030260Y-110864623D02*
X218030260Y-111264623D01*
X218030260Y-111264623D02*
X217896927Y-111531290D01*
X217896927Y-111531290D02*
X217763594Y-111664623D01*
X217763594Y-111664623D02*
X217496927Y-111797957D01*
X217496927Y-111797957D02*
X216430260Y-111797957D01*
X220430260Y-113131290D02*
X220430260Y-111664623D01*
X220430260Y-111664623D02*
X220296927Y-111397957D01*
X220296927Y-111397957D02*
X220030260Y-111264623D01*
X220030260Y-111264623D02*
X219496927Y-111264623D01*
X219496927Y-111264623D02*
X219230260Y-111397957D01*
X220430260Y-112997957D02*
X220163594Y-113131290D01*
X220163594Y-113131290D02*
X219496927Y-113131290D01*
X219496927Y-113131290D02*
X219230260Y-112997957D01*
X219230260Y-112997957D02*
X219096927Y-112731290D01*
X219096927Y-112731290D02*
X219096927Y-112464623D01*
X219096927Y-112464623D02*
X219230260Y-112197957D01*
X219230260Y-112197957D02*
X219496927Y-112064623D01*
X219496927Y-112064623D02*
X220163594Y-112064623D01*
X220163594Y-112064623D02*
X220430260Y-111931290D01*
X221496927Y-111264623D02*
X222963593Y-111264623D01*
X222963593Y-111264623D02*
X221496927Y-113131290D01*
X221496927Y-113131290D02*
X222963593Y-113131290D01*
X179896929Y-117639133D02*
X179896929Y-114839133D01*
X179896929Y-114839133D02*
X180830263Y-116839133D01*
X180830263Y-116839133D02*
X181763596Y-114839133D01*
X181763596Y-114839133D02*
X181763596Y-117639133D01*
X184296929Y-117639133D02*
X184296929Y-116172466D01*
X184296929Y-116172466D02*
X184163596Y-115905800D01*
X184163596Y-115905800D02*
X183896929Y-115772466D01*
X183896929Y-115772466D02*
X183363596Y-115772466D01*
X183363596Y-115772466D02*
X183096929Y-115905800D01*
X184296929Y-117505800D02*
X184030263Y-117639133D01*
X184030263Y-117639133D02*
X183363596Y-117639133D01*
X183363596Y-117639133D02*
X183096929Y-117505800D01*
X183096929Y-117505800D02*
X182963596Y-117239133D01*
X182963596Y-117239133D02*
X182963596Y-116972466D01*
X182963596Y-116972466D02*
X183096929Y-116705800D01*
X183096929Y-116705800D02*
X183363596Y-116572466D01*
X183363596Y-116572466D02*
X184030263Y-116572466D01*
X184030263Y-116572466D02*
X184296929Y-116439133D01*
X186830262Y-117639133D02*
X186830262Y-114839133D01*
X186830262Y-117505800D02*
X186563596Y-117639133D01*
X186563596Y-117639133D02*
X186030262Y-117639133D01*
X186030262Y-117639133D02*
X185763596Y-117505800D01*
X185763596Y-117505800D02*
X185630262Y-117372466D01*
X185630262Y-117372466D02*
X185496929Y-117105800D01*
X185496929Y-117105800D02*
X185496929Y-116305800D01*
X185496929Y-116305800D02*
X185630262Y-116039133D01*
X185630262Y-116039133D02*
X185763596Y-115905800D01*
X185763596Y-115905800D02*
X186030262Y-115772466D01*
X186030262Y-115772466D02*
X186563596Y-115772466D01*
X186563596Y-115772466D02*
X186830262Y-115905800D01*
X188163595Y-117372466D02*
X188296929Y-117505800D01*
X188296929Y-117505800D02*
X188163595Y-117639133D01*
X188163595Y-117639133D02*
X188030262Y-117505800D01*
X188030262Y-117505800D02*
X188163595Y-117372466D01*
X188163595Y-117372466D02*
X188163595Y-117639133D01*
X189096928Y-114839133D02*
X190696928Y-114839133D01*
X189896928Y-117639133D02*
X189896928Y-114839133D01*
X191630261Y-117639133D02*
X191630261Y-115772466D01*
X191630261Y-114839133D02*
X191496928Y-114972466D01*
X191496928Y-114972466D02*
X191630261Y-115105800D01*
X191630261Y-115105800D02*
X191763595Y-114972466D01*
X191763595Y-114972466D02*
X191630261Y-114839133D01*
X191630261Y-114839133D02*
X191630261Y-115105800D01*
X192963594Y-115772466D02*
X192963594Y-117639133D01*
X192963594Y-116039133D02*
X193096928Y-115905800D01*
X193096928Y-115905800D02*
X193363594Y-115772466D01*
X193363594Y-115772466D02*
X193763594Y-115772466D01*
X193763594Y-115772466D02*
X194030261Y-115905800D01*
X194030261Y-115905800D02*
X194163594Y-116172466D01*
X194163594Y-116172466D02*
X194163594Y-117639133D01*
X195496927Y-117639133D02*
X195496927Y-114839133D01*
X195763594Y-116572466D02*
X196563594Y-117639133D01*
X196563594Y-115772466D02*
X195496927Y-116839133D01*
X198830261Y-117505800D02*
X198563594Y-117639133D01*
X198563594Y-117639133D02*
X198030261Y-117639133D01*
X198030261Y-117639133D02*
X197763594Y-117505800D01*
X197763594Y-117505800D02*
X197630261Y-117239133D01*
X197630261Y-117239133D02*
X197630261Y-116172466D01*
X197630261Y-116172466D02*
X197763594Y-115905800D01*
X197763594Y-115905800D02*
X198030261Y-115772466D01*
X198030261Y-115772466D02*
X198563594Y-115772466D01*
X198563594Y-115772466D02*
X198830261Y-115905800D01*
X198830261Y-115905800D02*
X198963594Y-116172466D01*
X198963594Y-116172466D02*
X198963594Y-116439133D01*
X198963594Y-116439133D02*
X197630261Y-116705800D01*
X200163594Y-117639133D02*
X200163594Y-115772466D01*
X200163594Y-116305800D02*
X200296928Y-116039133D01*
X200296928Y-116039133D02*
X200430261Y-115905800D01*
X200430261Y-115905800D02*
X200696928Y-115772466D01*
X200696928Y-115772466D02*
X200963594Y-115772466D01*
X201763594Y-117505800D02*
X202030261Y-117639133D01*
X202030261Y-117639133D02*
X202563594Y-117639133D01*
X202563594Y-117639133D02*
X202830261Y-117505800D01*
X202830261Y-117505800D02*
X202963594Y-117239133D01*
X202963594Y-117239133D02*
X202963594Y-117105800D01*
X202963594Y-117105800D02*
X202830261Y-116839133D01*
X202830261Y-116839133D02*
X202563594Y-116705800D01*
X202563594Y-116705800D02*
X202163594Y-116705800D01*
X202163594Y-116705800D02*
X201896927Y-116572466D01*
X201896927Y-116572466D02*
X201763594Y-116305800D01*
X201763594Y-116305800D02*
X201763594Y-116172466D01*
X201763594Y-116172466D02*
X201896927Y-115905800D01*
X201896927Y-115905800D02*
X202163594Y-115772466D01*
X202163594Y-115772466D02*
X202563594Y-115772466D01*
X202563594Y-115772466D02*
X202830261Y-115905800D01*
X204163594Y-117372466D02*
X204296928Y-117505800D01*
X204296928Y-117505800D02*
X204163594Y-117639133D01*
X204163594Y-117639133D02*
X204030261Y-117505800D01*
X204030261Y-117505800D02*
X204163594Y-117372466D01*
X204163594Y-117372466D02*
X204163594Y-117639133D01*
X205230261Y-114839133D02*
X205896927Y-117639133D01*
X205896927Y-117639133D02*
X206430261Y-115639133D01*
X206430261Y-115639133D02*
X206963594Y-117639133D01*
X206963594Y-117639133D02*
X207630261Y-114839133D01*
X209096927Y-117639133D02*
X208830261Y-117505800D01*
X208830261Y-117505800D02*
X208696927Y-117372466D01*
X208696927Y-117372466D02*
X208563594Y-117105800D01*
X208563594Y-117105800D02*
X208563594Y-116305800D01*
X208563594Y-116305800D02*
X208696927Y-116039133D01*
X208696927Y-116039133D02*
X208830261Y-115905800D01*
X208830261Y-115905800D02*
X209096927Y-115772466D01*
X209096927Y-115772466D02*
X209496927Y-115772466D01*
X209496927Y-115772466D02*
X209763594Y-115905800D01*
X209763594Y-115905800D02*
X209896927Y-116039133D01*
X209896927Y-116039133D02*
X210030261Y-116305800D01*
X210030261Y-116305800D02*
X210030261Y-117105800D01*
X210030261Y-117105800D02*
X209896927Y-117372466D01*
X209896927Y-117372466D02*
X209763594Y-117505800D01*
X209763594Y-117505800D02*
X209496927Y-117639133D01*
X209496927Y-117639133D02*
X209096927Y-117639133D01*
X211230260Y-117639133D02*
X211230260Y-115772466D01*
X211230260Y-116305800D02*
X211363594Y-116039133D01*
X211363594Y-116039133D02*
X211496927Y-115905800D01*
X211496927Y-115905800D02*
X211763594Y-115772466D01*
X211763594Y-115772466D02*
X212030260Y-115772466D01*
X212963593Y-117639133D02*
X212963593Y-114839133D01*
X213230260Y-116572466D02*
X214030260Y-117639133D01*
X214030260Y-115772466D02*
X212963593Y-116839133D01*
X215096927Y-117505800D02*
X215363594Y-117639133D01*
X215363594Y-117639133D02*
X215896927Y-117639133D01*
X215896927Y-117639133D02*
X216163594Y-117505800D01*
X216163594Y-117505800D02*
X216296927Y-117239133D01*
X216296927Y-117239133D02*
X216296927Y-117105800D01*
X216296927Y-117105800D02*
X216163594Y-116839133D01*
X216163594Y-116839133D02*
X215896927Y-116705800D01*
X215896927Y-116705800D02*
X215496927Y-116705800D01*
X215496927Y-116705800D02*
X215230260Y-116572466D01*
X215230260Y-116572466D02*
X215096927Y-116305800D01*
X215096927Y-116305800D02*
X215096927Y-116172466D01*
X215096927Y-116172466D02*
X215230260Y-115905800D01*
X215230260Y-115905800D02*
X215496927Y-115772466D01*
X215496927Y-115772466D02*
X215896927Y-115772466D01*
X215896927Y-115772466D02*
X216163594Y-115905800D01*
X217496927Y-117639133D02*
X217496927Y-114839133D01*
X218696927Y-117639133D02*
X218696927Y-116172466D01*
X218696927Y-116172466D02*
X218563594Y-115905800D01*
X218563594Y-115905800D02*
X218296927Y-115772466D01*
X218296927Y-115772466D02*
X217896927Y-115772466D01*
X217896927Y-115772466D02*
X217630261Y-115905800D01*
X217630261Y-115905800D02*
X217496927Y-116039133D01*
X220430260Y-117639133D02*
X220163594Y-117505800D01*
X220163594Y-117505800D02*
X220030260Y-117372466D01*
X220030260Y-117372466D02*
X219896927Y-117105800D01*
X219896927Y-117105800D02*
X219896927Y-116305800D01*
X219896927Y-116305800D02*
X220030260Y-116039133D01*
X220030260Y-116039133D02*
X220163594Y-115905800D01*
X220163594Y-115905800D02*
X220430260Y-115772466D01*
X220430260Y-115772466D02*
X220830260Y-115772466D01*
X220830260Y-115772466D02*
X221096927Y-115905800D01*
X221096927Y-115905800D02*
X221230260Y-116039133D01*
X221230260Y-116039133D02*
X221363594Y-116305800D01*
X221363594Y-116305800D02*
X221363594Y-117105800D01*
X221363594Y-117105800D02*
X221230260Y-117372466D01*
X221230260Y-117372466D02*
X221096927Y-117505800D01*
X221096927Y-117505800D02*
X220830260Y-117639133D01*
X220830260Y-117639133D02*
X220430260Y-117639133D01*
X222563593Y-115772466D02*
X222563593Y-118572466D01*
X222563593Y-115905800D02*
X222830260Y-115772466D01*
X222830260Y-115772466D02*
X223363593Y-115772466D01*
X223363593Y-115772466D02*
X223630260Y-115905800D01*
X223630260Y-115905800D02*
X223763593Y-116039133D01*
X223763593Y-116039133D02*
X223896927Y-116305800D01*
X223896927Y-116305800D02*
X223896927Y-117105800D01*
X223896927Y-117105800D02*
X223763593Y-117372466D01*
X223763593Y-117372466D02*
X223630260Y-117505800D01*
X223630260Y-117505800D02*
X223363593Y-117639133D01*
X223363593Y-117639133D02*
X222830260Y-117639133D01*
X222830260Y-117639133D02*
X222563593Y-117505800D01*
X226830260Y-116305800D02*
X226696926Y-116172466D01*
X226696926Y-116172466D02*
X226430260Y-116039133D01*
X226430260Y-116039133D02*
X226163593Y-116039133D01*
X226163593Y-116039133D02*
X225896926Y-116172466D01*
X225896926Y-116172466D02*
X225763593Y-116305800D01*
X225763593Y-116305800D02*
X225630260Y-116572466D01*
X225630260Y-116572466D02*
X225630260Y-116839133D01*
X225630260Y-116839133D02*
X225763593Y-117105800D01*
X225763593Y-117105800D02*
X225896926Y-117239133D01*
X225896926Y-117239133D02*
X226163593Y-117372466D01*
X226163593Y-117372466D02*
X226430260Y-117372466D01*
X226430260Y-117372466D02*
X226696926Y-117239133D01*
X226696926Y-117239133D02*
X226830260Y-117105800D01*
X226830260Y-116039133D02*
X226830260Y-117105800D01*
X226830260Y-117105800D02*
X226963593Y-117239133D01*
X226963593Y-117239133D02*
X227096926Y-117239133D01*
X227096926Y-117239133D02*
X227363593Y-117105800D01*
X227363593Y-117105800D02*
X227496926Y-116839133D01*
X227496926Y-116839133D02*
X227496926Y-116172466D01*
X227496926Y-116172466D02*
X227230260Y-115772466D01*
X227230260Y-115772466D02*
X226830260Y-115505800D01*
X226830260Y-115505800D02*
X226296926Y-115372466D01*
X226296926Y-115372466D02*
X225763593Y-115505800D01*
X225763593Y-115505800D02*
X225363593Y-115772466D01*
X225363593Y-115772466D02*
X225096926Y-116172466D01*
X225096926Y-116172466D02*
X224963593Y-116705800D01*
X224963593Y-116705800D02*
X225096926Y-117239133D01*
X225096926Y-117239133D02*
X225363593Y-117639133D01*
X225363593Y-117639133D02*
X225763593Y-117905800D01*
X225763593Y-117905800D02*
X226296926Y-118039133D01*
X226296926Y-118039133D02*
X226830260Y-117905800D01*
X226830260Y-117905800D02*
X227230260Y-117639133D01*
X229230260Y-114839133D02*
X229763593Y-114839133D01*
X229763593Y-114839133D02*
X230030260Y-114972466D01*
X230030260Y-114972466D02*
X230296926Y-115239133D01*
X230296926Y-115239133D02*
X230430260Y-115772466D01*
X230430260Y-115772466D02*
X230430260Y-116705800D01*
X230430260Y-116705800D02*
X230296926Y-117239133D01*
X230296926Y-117239133D02*
X230030260Y-117505800D01*
X230030260Y-117505800D02*
X229763593Y-117639133D01*
X229763593Y-117639133D02*
X229230260Y-117639133D01*
X229230260Y-117639133D02*
X228963593Y-117505800D01*
X228963593Y-117505800D02*
X228696926Y-117239133D01*
X228696926Y-117239133D02*
X228563593Y-116705800D01*
X228563593Y-116705800D02*
X228563593Y-115772466D01*
X228563593Y-115772466D02*
X228696926Y-115239133D01*
X228696926Y-115239133D02*
X228963593Y-114972466D01*
X228963593Y-114972466D02*
X229230260Y-114839133D01*
X232830259Y-115772466D02*
X232830259Y-117639133D01*
X231630259Y-115772466D02*
X231630259Y-117239133D01*
X231630259Y-117239133D02*
X231763593Y-117505800D01*
X231763593Y-117505800D02*
X232030259Y-117639133D01*
X232030259Y-117639133D02*
X232430259Y-117639133D01*
X232430259Y-117639133D02*
X232696926Y-117505800D01*
X232696926Y-117505800D02*
X232830259Y-117372466D01*
X233763592Y-115772466D02*
X234830259Y-115772466D01*
X234163592Y-114839133D02*
X234163592Y-117239133D01*
X234163592Y-117239133D02*
X234296926Y-117505800D01*
X234296926Y-117505800D02*
X234563592Y-117639133D01*
X234563592Y-117639133D02*
X234830259Y-117639133D01*
X236163592Y-117639133D02*
X235896926Y-117505800D01*
X235896926Y-117505800D02*
X235763592Y-117239133D01*
X235763592Y-117239133D02*
X235763592Y-114839133D01*
X237630259Y-117639133D02*
X237363593Y-117505800D01*
X237363593Y-117505800D02*
X237230259Y-117372466D01*
X237230259Y-117372466D02*
X237096926Y-117105800D01*
X237096926Y-117105800D02*
X237096926Y-116305800D01*
X237096926Y-116305800D02*
X237230259Y-116039133D01*
X237230259Y-116039133D02*
X237363593Y-115905800D01*
X237363593Y-115905800D02*
X237630259Y-115772466D01*
X237630259Y-115772466D02*
X238030259Y-115772466D01*
X238030259Y-115772466D02*
X238296926Y-115905800D01*
X238296926Y-115905800D02*
X238430259Y-116039133D01*
X238430259Y-116039133D02*
X238563593Y-116305800D01*
X238563593Y-116305800D02*
X238563593Y-117105800D01*
X238563593Y-117105800D02*
X238430259Y-117372466D01*
X238430259Y-117372466D02*
X238296926Y-117505800D01*
X238296926Y-117505800D02*
X238030259Y-117639133D01*
X238030259Y-117639133D02*
X237630259Y-117639133D01*
X240163592Y-117639133D02*
X239896926Y-117505800D01*
X239896926Y-117505800D02*
X239763592Y-117372466D01*
X239763592Y-117372466D02*
X239630259Y-117105800D01*
X239630259Y-117105800D02*
X239630259Y-116305800D01*
X239630259Y-116305800D02*
X239763592Y-116039133D01*
X239763592Y-116039133D02*
X239896926Y-115905800D01*
X239896926Y-115905800D02*
X240163592Y-115772466D01*
X240163592Y-115772466D02*
X240563592Y-115772466D01*
X240563592Y-115772466D02*
X240830259Y-115905800D01*
X240830259Y-115905800D02*
X240963592Y-116039133D01*
X240963592Y-116039133D02*
X241096926Y-116305800D01*
X241096926Y-116305800D02*
X241096926Y-117105800D01*
X241096926Y-117105800D02*
X240963592Y-117372466D01*
X240963592Y-117372466D02*
X240830259Y-117505800D01*
X240830259Y-117505800D02*
X240563592Y-117639133D01*
X240563592Y-117639133D02*
X240163592Y-117639133D01*
X242296925Y-117639133D02*
X242296925Y-114839133D01*
X242563592Y-116572466D02*
X243363592Y-117639133D01*
X243363592Y-115772466D02*
X242296925Y-116839133D01*
X244563592Y-117372466D02*
X244696926Y-117505800D01*
X244696926Y-117505800D02*
X244563592Y-117639133D01*
X244563592Y-117639133D02*
X244430259Y-117505800D01*
X244430259Y-117505800D02*
X244563592Y-117372466D01*
X244563592Y-117372466D02*
X244563592Y-117639133D01*
X247096925Y-117505800D02*
X246830259Y-117639133D01*
X246830259Y-117639133D02*
X246296925Y-117639133D01*
X246296925Y-117639133D02*
X246030259Y-117505800D01*
X246030259Y-117505800D02*
X245896925Y-117372466D01*
X245896925Y-117372466D02*
X245763592Y-117105800D01*
X245763592Y-117105800D02*
X245763592Y-116305800D01*
X245763592Y-116305800D02*
X245896925Y-116039133D01*
X245896925Y-116039133D02*
X246030259Y-115905800D01*
X246030259Y-115905800D02*
X246296925Y-115772466D01*
X246296925Y-115772466D02*
X246830259Y-115772466D01*
X246830259Y-115772466D02*
X247096925Y-115905800D01*
X248696925Y-117639133D02*
X248430259Y-117505800D01*
X248430259Y-117505800D02*
X248296925Y-117372466D01*
X248296925Y-117372466D02*
X248163592Y-117105800D01*
X248163592Y-117105800D02*
X248163592Y-116305800D01*
X248163592Y-116305800D02*
X248296925Y-116039133D01*
X248296925Y-116039133D02*
X248430259Y-115905800D01*
X248430259Y-115905800D02*
X248696925Y-115772466D01*
X248696925Y-115772466D02*
X249096925Y-115772466D01*
X249096925Y-115772466D02*
X249363592Y-115905800D01*
X249363592Y-115905800D02*
X249496925Y-116039133D01*
X249496925Y-116039133D02*
X249630259Y-116305800D01*
X249630259Y-116305800D02*
X249630259Y-117105800D01*
X249630259Y-117105800D02*
X249496925Y-117372466D01*
X249496925Y-117372466D02*
X249363592Y-117505800D01*
X249363592Y-117505800D02*
X249096925Y-117639133D01*
X249096925Y-117639133D02*
X248696925Y-117639133D01*
X250830258Y-117639133D02*
X250830258Y-115772466D01*
X250830258Y-116039133D02*
X250963592Y-115905800D01*
X250963592Y-115905800D02*
X251230258Y-115772466D01*
X251230258Y-115772466D02*
X251630258Y-115772466D01*
X251630258Y-115772466D02*
X251896925Y-115905800D01*
X251896925Y-115905800D02*
X252030258Y-116172466D01*
X252030258Y-116172466D02*
X252030258Y-117639133D01*
X252030258Y-116172466D02*
X252163592Y-115905800D01*
X252163592Y-115905800D02*
X252430258Y-115772466D01*
X252430258Y-115772466D02*
X252830258Y-115772466D01*
X252830258Y-115772466D02*
X253096925Y-115905800D01*
X253096925Y-115905800D02*
X253230258Y-116172466D01*
X253230258Y-116172466D02*
X253230258Y-117639133D01*
D12*
%TO.P,BT1,1,+*%
%TO.N,Net-(BT1-+)*%
X233595000Y-139500000D03*
X257405000Y-139500000D03*
D13*
%TO.P,BT1,2,-*%
%TO.N,Net-(BT1--)*%
X245500000Y-139500000D03*
%TD*%
D14*
%TO.P,R1,1*%
%TO.N,Net-(BT1-+)*%
X257500000Y-127000000D03*
%TO.P,R1,2*%
%TO.N,Net-(D1-A)*%
X257500000Y-119380000D03*
%TD*%
D15*
%TO.P,D1,1,K*%
%TO.N,Net-(D1-K)*%
X219725000Y-125000000D03*
D16*
%TO.P,D1,2,A*%
%TO.N,Net-(D1-A)*%
X222265000Y-125000000D03*
%TD*%
D17*
%TO.P,SW1,1,1*%
%TO.N,Net-(D1-K)*%
X182500000Y-144500000D03*
X189000000Y-144500000D03*
%TO.P,SW1,2,2*%
%TO.N,Net-(BT1--)*%
X182500000Y-149000000D03*
X189000000Y-149000000D03*
%TD*%
D18*
%TO.N,Net-(D1-A)*%
X250120000Y-119380000D02*
X257500000Y-119380000D01*
X244500000Y-125000000D02*
X250120000Y-119380000D01*
X222265000Y-125000000D02*
X244500000Y-125000000D01*
%TO.N,Net-(D1-K)*%
X219725000Y-132775000D02*
X219725000Y-125000000D01*
X208000000Y-144500000D02*
X219725000Y-132775000D01*
X189000000Y-144500000D02*
X208000000Y-144500000D01*
%TO.N,Net-(BT1-+)*%
X233500000Y-128000000D02*
X233595000Y-128095000D01*
X234500000Y-127000000D02*
X233500000Y-128000000D01*
X233595000Y-128095000D02*
X233595000Y-139500000D01*
X257500000Y-127000000D02*
X234500000Y-127000000D01*
X257500000Y-139405000D02*
X257405000Y-139500000D01*
X257500000Y-127000000D02*
X257500000Y-139405000D01*
%TO.N,Net-(BT1--)*%
X236000000Y-149000000D02*
X245500000Y-139500000D01*
X189000000Y-149000000D02*
X236000000Y-149000000D01*
%TO.N,Net-(D1-K)*%
X182500000Y-144500000D02*
X189000000Y-144500000D01*
%TO.N,Net-(BT1--)*%
X182500000Y-149000000D02*
X189000000Y-149000000D01*
%TD*%
M02*
